<svg width="1200" height="420" viewBox="0 0 1200 420" fill="none" xmlns="http://www.w3.org/2000/svg">
<path d="M329.103 204.426C329.103 198.184 330.102 192.441 332.099 187.198C334.221 181.955 337.093 177.398 340.713 173.528C344.458 169.658 348.89 166.662 354.008 164.54C359.251 162.418 365.056 161.357 371.423 161.357C378.664 161.357 385.093 162.73 390.71 165.476C396.453 168.223 401.134 172.03 404.755 176.899C408.25 172.03 412.744 168.223 418.237 165.476C423.73 162.73 430.097 161.357 437.337 161.357C443.704 161.357 449.509 162.418 454.752 164.54C460.12 166.662 464.677 169.658 468.422 173.528C472.292 177.274 475.288 181.768 477.41 187.011C479.532 192.254 480.593 198.059 480.593 204.426V256.857H460.557V204.613C460.557 197.497 458.372 191.692 454.003 187.198C449.758 182.704 444.203 180.457 437.337 180.457C430.346 180.457 424.791 182.704 420.671 187.198C416.677 191.692 414.742 197.31 414.866 204.051V256.857H394.83V204.613C394.83 197.497 392.645 191.692 388.276 187.198C383.907 182.704 378.289 180.457 371.423 180.457C364.432 180.457 358.939 182.704 354.944 187.198C350.95 191.692 349.015 197.31 349.139 204.051V256.857H329.103V204.426ZM523.175 251.989L484.413 163.229H505.947L533.287 228.207L559.128 163.229H580.288L523.737 300.114H503.139L523.175 251.989ZM583.106 210.043C583.231 203.177 584.541 196.811 587.038 190.943C589.535 184.951 592.906 179.77 597.15 175.401C601.519 171.032 606.638 167.599 612.505 165.102C618.372 162.605 624.677 161.357 631.418 161.357C638.159 161.357 644.463 162.605 650.331 165.102C656.198 167.599 661.316 171.032 665.686 175.401C670.18 179.77 673.675 184.951 676.172 190.943C678.669 196.811 679.917 203.177 679.917 210.043C679.917 216.785 678.669 223.151 676.172 229.144C673.675 235.011 670.242 240.192 665.873 244.686C661.504 249.055 656.385 252.488 650.518 254.985C644.651 257.482 638.346 258.73 631.605 258.73C625.613 258.73 620.245 257.731 615.501 255.734C610.757 253.612 606.575 250.74 602.955 247.12V299.926H583.106V210.043ZM631.418 240.004C635.538 240.004 639.345 239.255 642.841 237.757C646.336 236.134 649.332 233.95 651.829 231.203C654.45 228.457 656.51 225.274 658.008 221.653C659.506 218.033 660.255 214.163 660.255 210.043C660.255 205.924 659.506 202.054 658.008 198.433C656.51 194.688 654.45 191.505 651.829 188.883C649.332 186.137 646.336 184.015 642.841 182.517C639.345 180.894 635.538 180.082 631.418 180.082C627.298 180.082 623.491 180.894 619.995 182.517C616.5 184.015 613.441 186.137 610.82 188.883C608.198 191.505 606.138 194.688 604.64 198.433C603.142 202.054 602.393 205.924 602.393 210.043C602.393 214.163 603.142 218.033 604.64 221.653C606.138 225.274 608.198 228.457 610.82 231.203C613.441 233.95 616.5 236.134 619.995 237.757C623.491 239.255 627.298 240.004 631.418 240.004ZM695.021 210.043C695.021 195.437 699.015 184.015 707.005 175.775C714.995 167.411 726.105 163.229 740.337 163.229H749.325V182.704H740.149C732.409 182.704 726.23 185.201 721.611 190.194C717.117 195.063 714.932 201.742 715.057 210.231V256.857H695.021V210.043ZM804.336 258.543C797.595 258.543 791.29 257.294 785.423 254.798C779.68 252.301 774.624 248.93 770.255 244.686C766.011 240.316 762.64 235.198 760.143 229.331C757.647 223.339 756.398 216.909 756.398 210.043C756.398 203.177 757.647 196.811 760.143 190.943C762.64 184.951 766.073 179.77 770.442 175.401C774.937 171.032 780.117 167.599 785.985 165.102C791.852 162.605 798.156 161.357 804.898 161.357C811.639 161.357 817.943 162.605 823.81 165.102C829.678 167.599 834.734 171.032 838.978 175.401C843.347 179.77 846.781 184.951 849.277 190.943C851.774 196.811 853.022 203.177 853.022 210.043V256.857H833.36V244.686C830.115 249.055 825.995 252.488 821.002 254.985C816.133 257.357 810.578 258.543 804.336 258.543ZM804.898 240.004C808.892 240.004 812.637 239.255 816.133 237.757C819.628 236.134 822.687 233.95 825.308 231.203C827.93 228.457 829.99 225.274 831.488 221.653C832.986 218.033 833.735 214.163 833.735 210.043C833.735 205.924 832.986 202.054 831.488 198.433C829.99 194.688 827.93 191.505 825.308 188.883C822.687 186.137 819.628 184.015 816.133 182.517C812.637 180.894 808.892 180.082 804.898 180.082C800.778 180.082 796.97 180.894 793.475 182.517C789.979 184.015 786.921 186.137 784.299 188.883C781.803 191.505 779.805 194.688 778.307 198.433C776.809 202.054 776.06 205.924 776.06 210.043C776.06 214.163 776.809 218.033 778.307 221.653C779.805 225.274 781.803 228.457 784.299 231.203C786.921 233.95 789.979 236.134 793.475 237.757C796.97 239.255 800.778 240.004 804.898 240.004ZM897.787 209.294L863.519 163.229H887.862L910.333 194.127L932.991 163.229H956.773L922.692 209.294L958.832 256.857H934.302L909.959 224.649L886.551 256.857H862.021L897.787 209.294ZM970.789 163.229H991.013V256.857H970.789V163.229ZM967.418 135.328C967.418 131.333 968.667 128.088 971.163 125.591C973.66 123.094 976.906 121.846 980.901 121.846C984.896 121.846 988.141 123.094 990.638 125.591C993.135 128.088 994.383 131.333 994.383 135.328C994.383 139.323 993.135 142.569 990.638 145.065C988.141 147.562 984.896 148.811 980.901 148.811C976.906 148.811 973.66 147.562 971.163 145.065C968.667 142.569 967.418 139.323 967.418 135.328ZM1040.82 258.73C1029.96 258.73 1021.47 256.108 1015.36 250.865C1009.24 245.497 1006.18 237.57 1006.18 227.084H1026.59V227.458C1026.72 232.327 1028.15 235.822 1030.9 237.945C1033.65 240.067 1037.08 241.128 1041.2 241.128C1045.57 241.128 1048.81 240.067 1050.94 237.945C1053.18 235.822 1054.31 232.951 1054.31 229.331C1054.31 227.458 1053.68 225.898 1052.43 224.649C1051.31 223.276 1049.75 222.09 1047.75 221.091C1045.76 220.093 1043.45 219.219 1040.82 218.47C1038.2 217.596 1035.52 216.66 1032.77 215.661C1029.78 214.662 1026.84 213.476 1023.97 212.103C1021.1 210.73 1018.48 208.982 1016.11 206.86C1013.86 204.738 1011.99 202.179 1010.49 199.183C1009.12 196.062 1008.43 192.379 1008.43 188.134C1008.43 184.514 1009.12 181.081 1010.49 177.835C1011.86 174.59 1013.86 171.781 1016.48 169.409C1019.23 166.912 1022.54 164.977 1026.41 163.604C1030.4 162.106 1034.89 161.357 1039.89 161.357C1049.87 161.357 1057.8 163.854 1063.67 168.847C1069.66 173.841 1072.66 180.956 1072.66 190.194H1053V190.007C1053 181.893 1048.75 177.835 1040.26 177.835C1036.27 177.835 1033.27 178.834 1031.27 180.831C1029.4 182.829 1028.47 185.263 1028.47 188.134C1028.47 189.882 1029.03 191.38 1030.15 192.629C1031.4 193.877 1033.02 195 1035.02 195.999C1037.02 196.998 1039.26 197.934 1041.76 198.808C1044.38 199.682 1047.07 200.618 1049.81 201.617C1052.81 202.74 1055.74 203.989 1058.61 205.362C1061.48 206.735 1064.04 208.483 1066.29 210.605C1068.54 212.727 1070.35 215.287 1071.72 218.283C1073.09 221.279 1073.78 224.899 1073.78 229.144C1073.78 232.889 1073.09 236.571 1071.72 240.192C1070.35 243.687 1068.29 246.808 1065.54 249.554C1062.8 252.301 1059.36 254.548 1055.24 256.296C1051.12 257.919 1046.32 258.73 1040.82 258.73Z" fill="black"/>
<ellipse cx="192.406" cy="209.373" rx="12.4837" ry="74.9025" fill="black"/>
<ellipse cx="222.367" cy="209.374" rx="12.4837" ry="63.6671" fill="black"/>
<ellipse cx="162.445" cy="209.374" rx="12.4837" ry="63.6671" fill="black"/>
<ellipse cx="251.404" cy="209.373" rx="11.5601" ry="31.2094" fill="black"/>
<ellipse cx="132.484" cy="262.429" rx="12.4837" ry="84.2653" fill="black"/>
</svg>
